<svg width="157" height="50" fill="none" xmlns="http://www.w3.org/2000/svg"><path d="M23.558 1.302c-4.458.317-8.73 1.892-12.232 4.51-1.992 1.49-3.883 3.425-5.293 5.411-1.215 1.712-2.401 4.065-3.077 6.1-.547 1.648-1.05 4.015-1.1 5.188l-.022.532 1.833.77c1.007.417 3.826 1.597 6.264 2.611l4.43 1.85.417-.252c.891-.533 2.186-.9 3.2-.9h.489l.316-.446c.18-.252.748-1.086 1.273-1.856l1.913-2.806a928.16 928.16 0 0 1 1.531-2.237l.569-.835.043-.712a8.85 8.85 0 0 1 7.4-8.201c.805-.137 2.358-.115 3.077.043 2.632.568 4.703 2.093 6.026 4.424.346.612.77 1.72.92 2.425.18.834.217 2.482.066 3.374-.619 3.712-3.589 6.72-7.199 7.288a21.72 21.72 0 0 1-1.222.144c-.504.028-.532.036-1.187.518-.374.266-1.309.935-2.078 1.489l-3.847 2.77-1.295.928-.05.676c-.151 1.834-.755 3.201-1.97 4.41a6.559 6.559 0 0 1-3.84 1.914c-1.489.201-3.236-.216-4.516-1.094-.791-.54-1.654-1.496-2.115-2.36-.273-.503-.632-1.482-.632-1.712 0-.115-.755-.453-4.51-2.014-2.48-1.036-4.515-1.87-4.53-1.864-.05.058.82 2.468 1.173 3.245 1.208 2.69 2.747 4.92 4.846 7.029 1.575 1.583 2.949 2.669 4.639 3.662a23.33 23.33 0 0 0 25.161-.87c2.028-1.397 4.264-3.598 5.739-5.648 3.646-5.087 5.134-11.44 4.142-17.69-1.1-6.972-5.3-13.102-11.441-16.72-3.92-2.303-8.73-3.425-13.311-3.094z" fill="#CCC"/><path d="M31.677 12.993c-2.258.503-4.049 2.31-4.545 4.59-.158.74-.144 1.95.043 2.669a6.013 6.013 0 0 0 3.135 3.892c.986.49 1.654.626 2.798.59.827-.029 1.028-.065 1.625-.266 1.941-.662 3.372-2.209 3.89-4.216.216-.863.223-2.043 0-2.878-.194-.74-.697-1.755-1.136-2.302-.74-.914-1.956-1.712-3.078-2.014-.625-.173-2.1-.21-2.732-.065zm2.53 1.575c1.238.396 2.1 1.144 2.669 2.31.33.669.41 1.064.41 1.97 0 .893-.087 1.245-.475 2.023-.467.935-1.309 1.69-2.323 2.086-.474.187-.719.237-1.301.266-.928.043-1.446-.057-2.18-.424-1.078-.526-1.869-1.425-2.272-2.583-.186-.533-.208-.712-.208-1.403 0-.69.021-.87.208-1.403.446-1.273 1.381-2.273 2.56-2.74.569-.224.828-.267 1.618-.274.597-.008.835.028 1.295.172zm31.915 1.482c-2.085.303-3.61 1.267-4.35 2.741-.403.806-.533 1.468-.483 2.497.044 1 .21 1.554.67 2.252.754 1.136 1.855 1.784 4.594 2.72 1.92.654 2.59.97 2.978 1.41.316.359.41.661.345 1.129-.151 1.108-1.194 1.669-3.07 1.662a10.15 10.15 0 0 1-4.193-.964c-.274-.13-.504-.216-.518-.21-.014.015-.252.641-.525 1.396-.28.749-.525 1.425-.554 1.49-.036.1.094.187.698.482 1.884.92 4.235 1.36 6.22 1.165 2.05-.201 3.437-.798 4.502-1.95.812-.877 1.193-1.848 1.25-3.222.058-1.23-.15-2.022-.747-2.835-.683-.942-1.812-1.568-4.595-2.561-1.985-.712-2.287-.85-2.754-1.223-.82-.67-.74-1.907.158-2.511.467-.31.74-.388 1.596-.432 1.209-.064 2.64.295 3.797.95.317.18.583.317.597.31.065-.065 1.467-2.598 1.467-2.648 0-.18-1.158-.806-2.085-1.13-1.482-.518-3.524-.733-4.998-.518zm85.2.094c-.683.223-1.287.799-1.51 1.432-.165.489-.165 1.266 0 1.755.173.496.669 1.043 1.187 1.295.359.173.496.201 1.057.201.561 0 .697-.028 1.057-.201.446-.216.942-.72 1.107-1.122.281-.67.245-1.598-.079-2.23-.208-.41-.661-.835-1.107-1.037-.417-.187-1.287-.23-1.712-.093zm1.597.504c.697.33 1.071.956 1.071 1.805 0 1.195-.762 1.979-1.934 1.979-.619 0-1.108-.209-1.467-.612-.367-.417-.468-.712-.468-1.367 0-.654.101-.95.468-1.367.532-.604 1.567-.798 2.33-.438z" fill="#CCC"/><path d="M151.243 18.389l.022 1.215h.18c.172 0 .179-.021.201-.453l.021-.446h.231c.215 0 .251.036.467.468.209.417.252.467.446.467.115 0 .216-.021.216-.05 0-.022-.115-.252-.252-.504l-.252-.467.18-.216a.743.743 0 0 0 .007-.964c-.151-.187-.216-.201-.827-.23l-.654-.029.014 1.209zm1.194-.497c.029.274-.187.453-.539.453-.238 0-.238 0-.238-.366v-.36l.381.021c.36.022.374.03.396.252zm-76.067-.086v1.547l2.574.014 2.567.021.022 7.101.014 7.108h3.595l.015-7.108.021-7.1 2.517-.015a172.91 172.91 0 0 0 2.59-.021c.042 0 .071-.554.064-1.533v-1.525l-6.99-.022-6.99-.014v1.547zm17.941-1.461c-.022.05-.029 3.943-.022 8.655l.022 8.561h11.549v-3.094l-3.962-.021-3.956-.015v-4.028h6.832v-3.166h-6.832v-3.885l3.956-.014 3.955-.022.014-1.51.007-1.511-5.767-.022c-4.573-.014-5.774 0-5.796.072zm21.027.108c-.108.288-2.078 5.569-4.185 11.245a966.175 966.175 0 0 1-1.518 4.079c-.338.92-.618 1.705-.618 1.748 0 .05.633.072 1.863.072h1.862l.489-1.424c.266-.777.525-1.533.568-1.67l.086-.251 3.344-.022 3.351-.014.576 1.669.575 1.676 1.949.022c1.071.007 1.948 0 1.948-.022 0-.021-.762-2.036-1.697-4.482-.935-2.439-2.373-6.216-3.2-8.381a480.848 480.848 0 0 0-1.611-4.194l-.1-.245h-3.603l-.079.194zm2.15 4.806c.115.353.626 1.827 1.122 3.266.496 1.446.906 2.662.906 2.713 0 .079-.467.093-2.301.093-1.266 0-2.301-.022-2.301-.05-.007-.159 2.265-6.77 2.308-6.727.022.036.144.345.266.705zm11.808 3.669v8.67l1.711-.015 1.705-.022.036-5.18.036-5.172 1.021 2.223 2.272 4.928 1.244 2.698h2.05l1.186-2.554c.647-1.403 1.69-3.648 2.316-4.993l1.129-2.432.021 5.26.015 5.258h3.451V16.26h-1.74l-1.747.007-2.762 6.216c-1.517 3.425-2.768 6.216-2.783 6.209a4238.86 4238.86 0 0 1-4.436-9.612l-1.295-2.82h-3.43v8.67zM16.95 28.892c-.518.122-.605.173-.46.252.057.036.697.31 1.423.611 1.661.691 1.906.813 2.344 1.188.842.719 1.28 1.697 1.273 2.834-.007 1.396-.777 2.662-1.985 3.259-.575.28-.963.367-1.64.374-.711 0-.984-.079-2.76-.82-.828-.338-1.518-.612-1.525-.597-.065.057.618 1 1 1.381 1.085 1.08 2.595 1.597 4.07 1.403 2.171-.288 3.854-1.87 4.293-4.036.525-2.604-1.122-5.187-3.747-5.856-.532-.137-1.719-.13-2.287.007z" fill="#CCC"/></svg>