<svg id="Layer_1" data-name="Layer 1" xmlns="http://www.w3.org/2000/svg" viewBox="0 0 152.58 47.34"><defs><style>.cls-1{fill:#243042}</style></defs><path class="cls-1" d="M23.56 1.3a23.21 23.21 0 0 0-12.23 4.51A25.16 25.16 0 0 0 6 11.22a25.12 25.12 0 0 0-3 6.1 24 24 0 0 0-1.1 5.19v.53l1.84.77L10 26.42l4.43 1.85.42-.25a6.86 6.86 0 0 1 3.2-.9h.49l.31-.44 1.28-1.86L22 22c.52-.77 1.21-1.77 1.53-2.23l.57-.84v-.71a8.85 8.85 0 0 1 7.4-8.2 10.55 10.55 0 0 1 3.08 0 8.94 8.94 0 0 1 6 4.43 11.2 11.2 0 0 1 .92 2.42 11.51 11.51 0 0 1 .06 3.37 8.87 8.87 0 0 1-7.2 7.29c-.39.06-.94.12-1.22.15-.5 0-.53 0-1.19.51l-2.07 1.49-3.81 2.82-1.3.93-.05.68a6.75 6.75 0 0 1-5.81 6.32 6.73 6.73 0 0 1-4.51-1.09A7.39 7.39 0 0 1 12.28 37a7 7 0 0 1-.63-1.71c0-.12-.76-.46-4.51-2-2.48-1-4.52-1.87-4.53-1.86a28.41 28.41 0 0 0 1.17 3.24 23.1 23.1 0 0 0 4.85 7 21.73 21.73 0 0 0 4.64 3.66 23.32 23.32 0 0 0 25.16-.87 25.37 25.37 0 0 0 5.74-5.64 24 24 0 0 0 4.14-17.69A23.7 23.7 0 0 0 36.87 4.4a23.39 23.39 0 0 0-13.31-3.1z" transform="translate(-1.83 -1.25)"/><path class="cls-1" d="M31.68 13a6 6 0 0 0-4.55 4.59 7 7 0 0 0 0 2.67 6 6 0 0 0 3.14 3.89 5.05 5.05 0 0 0 2.8.59 4.39 4.39 0 0 0 1.62-.26 6 6 0 0 0 3.89-4.22 6.23 6.23 0 0 0 0-2.88 7.16 7.16 0 0 0-1.13-2.3 6.41 6.41 0 0 0-3.08-2 7.83 7.83 0 0 0-2.69-.08zm2.53 1.58a4.26 4.26 0 0 1 2.67 2.31 3.68 3.68 0 0 1 .41 2 3.62 3.62 0 0 1-.48 2A4.4 4.4 0 0 1 34.49 23a3.54 3.54 0 0 1-1.3.26A3.73 3.73 0 0 1 31 22.8a4.45 4.45 0 0 1-2.27-2.58 3.25 3.25 0 0 1-.21-1.41 3.18 3.18 0 0 1 .21-1.4 4.52 4.52 0 0 1 2.56-2.74 3.51 3.51 0 0 1 1.61-.27 3.26 3.26 0 0 1 1.31.17zm31.91 1.47a5.46 5.46 0 0 0-4.35 2.74 4.55 4.55 0 0 0-.48 2.5 3.84 3.84 0 0 0 .71 2.25c.75 1.14 1.85 1.78 4.59 2.72 1.92.65 2.59 1 3 1.41a1.25 1.25 0 0 1 .35 1.13c-.16 1.11-1.2 1.67-3.07 1.66a10.27 10.27 0 0 1-4.2-1 2.49 2.49 0 0 0-.52-.21s-.25.64-.52 1.39L61 32.17c0 .1.09.19.69.48a12.16 12.16 0 0 0 6.22 1.17 6.58 6.58 0 0 0 4.51-1.95 4.69 4.69 0 0 0 1.25-3.22 4 4 0 0 0-.75-2.84c-.68-.94-1.81-1.57-4.6-2.56A8.65 8.65 0 0 1 65.59 22a1.55 1.55 0 0 1 .16-2.51 2.54 2.54 0 0 1 1.59-.43 7.23 7.23 0 0 1 3.8.95 5.82 5.82 0 0 0 .6.31c.06-.07 1.47-2.6 1.47-2.65a5.51 5.51 0 0 0-2.09-1.13 11.58 11.58 0 0 0-5-.49zm85.2.09a2.5 2.5 0 0 0-1.51 1.44 3.25 3.25 0 0 0 0 1.75 2.58 2.58 0 0 0 1.19 1.3 2.88 2.88 0 0 0 2.11 0 2.57 2.57 0 0 0 1.11-1.13 2.88 2.88 0 0 0-.08-2.23 2.47 2.47 0 0 0-1.11-1 3.11 3.11 0 0 0-1.71-.13zm1.6.51a1.85 1.85 0 0 1 1.07 1.8 1.84 1.84 0 0 1-1.93 2 1.89 1.89 0 0 1-1.47-.61 1.71 1.71 0 0 1-.47-1.37 1.69 1.69 0 0 1 .47-1.36 2.07 2.07 0 0 1 2.33-.46z" transform="translate(-1.83 -1.25)"/><path class="cls-1" d="M151.24 18.39v1.21h.19c.17 0 .17 0 .2-.45v-.44h.23c.21 0 .25 0 .47.46s.25.47.44.47.22 0 .22-.05a5.11 5.11 0 0 0-.26-.5l-.25-.47.18-.22a.73.73 0 0 0 0-1c-.15-.19-.22-.2-.83-.23h-.65zm1.2-.5c0 .28-.19.46-.54.46s-.24 0-.24-.37v-.36h.38c.36.04.37.05.4.27zm-76.07-.08v1.54h5.14v14.21h3.59V19.35h5.1a5.79 5.79 0 0 0 .07-1.53V16.3h-14zm17.94-1.46v17.21h11.55v-3.09h-8v-4h6.83v-3.23h-6.75v-3.89h7.95v-3.06h-5.76a47.94 47.94 0 0 0-5.82.06zm21.03.1c-.11.29-2.08 5.57-4.19 11.25l-1.51 4.08c-.34.92-.62 1.7-.62 1.75a9.1 9.1 0 0 0 1.86.07h1.86l.49-1.43c.27-.77.53-1.53.57-1.67l.09-.25h6.69l.58 1.66.57 1.68h3.95s-.76-2-1.7-4.48-2.37-6.22-3.2-8.38-1.55-4.06-1.61-4.2l-.1-.24h-3.6zm2.15 4.81c.11.35.62 1.83 1.12 3.27s.91 2.66.91 2.71-.47.09-2.31.09h-2.3s2.27-6.77 2.31-6.73.15.3.27.66zm11.81 3.67v8.67h3.41V23.25l1 2.22c.57 1.23 1.59 3.45 2.28 4.93l1.24 2.7h2.05l1.19-2.56c.64-1.4 1.69-3.64 2.31-5l1.22-2.46V33.6h3.45V16.26H144l-2.76 6.21c-1.52 3.43-2.77 6.22-2.78 6.21s-2-4.24-4.44-9.61l-1.29-2.82h-3.43zM17 28.89c-.52.12-.6.17-.46.25s.7.31 1.42.62a7.79 7.79 0 0 1 2.35 1.18 3.58 3.58 0 0 1 1.27 2.84 3.67 3.67 0 0 1-2 3.26 3.38 3.38 0 0 1-1.64.37c-.72 0-1-.08-2.77-.82-.82-.34-1.51-.61-1.52-.6a5.48 5.48 0 0 0 1 1.38 4.92 4.92 0 0 0 4.07 1.41 5 5 0 0 0 .55-9.9 6.77 6.77 0 0 0-2.27.01z" transform="translate(-1.83 -1.25)"/></svg>