<svg version="1.1" id="Layer_1" xmlns="http://www.w3.org/2000/svg" x="0" y="0" viewBox="0 0 2471 2500" xml:space="preserve"><path d="M1233.4 0C583.2 0 50.6 505.9 0 1148.8l663.3 276.8c57.9-40.1 126.7-61.5 197.2-61.4 6.6 0 13.1.2 19.5.5l295-431.6v-6c0-259.7 209.4-471 466.7-471 257.4 0 466.7 211.3 466.7 471s-209.4 471.1-466.7 471.1c-3.6 0-7-.1-10.6-.2l-420.8 302.9c.3 5.6.4 11.2.4 16.7 0 195-157.2 353.6-350.3 353.6-169.6 0-311.4-122.2-343.5-283.9l-474.5-198c146.9 524.2 624.2 908.6 1190.8 908.6 683.6 0 1237.6-559.2 1237.6-1248.9C2471 559.2 1916.9 0 1233.4 0zM775.6 1895.1l-152-63.4c26.9 56.6 73.6 104 135.5 130 133.8 56.3 288-7.8 343.7-142.8 27-65 27.2-138 .4-203-26.7-65.5-77.2-116.7-141.9-143.9-64.4-27-133.3-26-193.9-2.9l157.1 65.5c98.7 41.5 145.3 155.8 104.2 255.4-41.1 99.5-154.4 146.6-253.1 105.1zm1177.2-968c0-173-139.5-313.9-311-313.9s-311.1 140.9-311.1 313.9c0 173 139.5 313.8 311.1 313.8 171.4 0 311-140.8 311-313.8zm-544.1-.6c0-130.2 104.6-235.7 233.6-235.7S1876 796.3 1876 926.5s-104.6 235.7-233.7 235.7c-129 0-233.7-105.5-233.6-235.7z" fill="#243042"/></svg>