<svg version="1.1" id="Layer_1" xmlns="http://www.w3.org/2000/svg" x="0" y="0" viewBox="0 0 152.6 47.3" xml:space="preserve"><style>.st0{fill:#ccc}</style><path class="st0" d="M21.7 0C17.3.3 13 1.9 9.5 4.5 7.5 6 5.7 7.8 4.2 9.9c-1.3 1.9-2.3 3.9-3 6.1-.6 1.7-.9 3.4-1.1 5.2v.5l1.8.8 6.3 2.6 4.4 1.9.4-.3c1-.6 2.1-.9 3.2-.9h.5l.3-.4 1.3-1.9 1.9-2.8c.5-.8 1.2-1.8 1.5-2.2l.6-.8V17c.2-4.1 3.3-7.5 7.4-8.2 1-.2 2.1-.2 3.1 0 2.5.5 4.7 2.1 6 4.4.4.8.7 1.6.9 2.4.2 1.1.2 2.2.1 3.4-.6 3.7-3.5 6.6-7.2 7.3-.4.1-.9.1-1.2.1-.5 0-.5 0-1.2.5L28 28.4l-3.8 2.8-1.3.9v.7c-.2 3.2-2.6 5.9-5.8 6.3-1.6.2-3.2-.2-4.5-1.1-.9-.6-1.6-1.4-2.1-2.3-.3-.5-.5-1.1-.6-1.7 0-.1-.8-.5-4.5-2-2.5-1-4.5-1.9-4.5-1.9.3 1.1.7 2.2 1.2 3.2 1.2 2.6 2.8 5 4.8 7 1.4 1.4 2.9 2.7 4.6 3.7 7.8 4.7 17.7 4.3 25.2-.9 2.2-1.6 4.1-3.5 5.7-5.6 3.6-5.1 5.1-11.5 4.1-17.7-1.1-7-5.3-13.1-11.4-16.7C31 .8 26.4-.3 21.7 0z"/><path class="st0" d="M29.9 11.8c-2.3.5-4.1 2.3-4.5 4.6-.2.9-.2 1.8 0 2.7.4 1.7 1.6 3.1 3.1 3.9.9.5 1.8.7 2.8.6.6 0 1.1-.1 1.6-.3 1.9-.7 3.4-2.2 3.9-4.2.2-.9.2-1.9 0-2.9-.2-.8-.6-1.6-1.1-2.3-.8-1-1.9-1.6-3.1-2-.9-.3-1.9-.3-2.7-.1zm2.5 1.5c1.2.3 2.2 1.2 2.7 2.3.3.6.5 1.3.4 2 0 .7-.1 1.4-.5 2-.5 1-1.3 1.7-2.3 2.1-.4.2-.9.3-1.3.3-.8.1-1.5-.1-2.2-.5-1.1-.5-1.9-1.5-2.3-2.6-.2-.4-.2-.9-.2-1.4 0-.5 0-1 .2-1.4.4-1.2 1.4-2.2 2.6-2.7.5-.2 1.1-.3 1.6-.3.4 0 .9.1 1.3.2zm31.9 1.5c-1.8.1-3.4 1.2-4.3 2.7-.4.8-.6 1.6-.5 2.5 0 .8.2 1.6.7 2.3.8 1.1 1.8 1.8 4.6 2.7 1.9.6 2.6 1 3 1.4.3.3.4.7.3 1.1-.2 1.1-1.2 1.7-3.1 1.7-1.5 0-2.9-.4-4.2-1-.2-.1-.3-.2-.5-.2 0 0-.3.6-.5 1.4l-.6 1.5c0 .1.1.2.7.5 1.9.9 4.1 1.3 6.2 1.2 1.7 0 3.3-.7 4.5-2 .8-.9 1.3-2 1.3-3.2.1-1-.1-2-.8-2.8-.7-.9-1.8-1.6-4.6-2.6-1-.3-1.9-.7-2.7-1.2-.7-.5-.8-1.5-.2-2.2.1-.1.2-.2.4-.3.5-.3 1-.5 1.6-.4 1.3 0 2.6.3 3.8 1l.6.3c.1-.1 1.5-2.6 1.5-2.6-.6-.5-1.3-.9-2.1-1.1-1.7-.7-3.4-.9-5.1-.7zm85.2.1c-.7.2-1.2.8-1.5 1.4-.2.6-.2 1.2 0 1.8.2.6.7 1 1.2 1.3.7.3 1.4.3 2.1 0 .5-.3.9-.6 1.1-1.1.3-.7.2-1.5-.1-2.2-.3-.4-.6-.8-1.1-1-.5-.3-1.1-.3-1.7-.2zm1.6.5c.7.3 1.1 1 1.1 1.8.1 1-.7 1.9-1.7 2h-.3c-.6 0-1.1-.2-1.5-.6-.4-.4-.5-.9-.5-1.4-.1-.5.1-1 .5-1.4.7-.6 1.6-.8 2.4-.4z"/><path class="st0" d="M149.4 17.1v1.2h.2c.2 0 .2 0 .2-.5v-.4h.2c.2 0 .3 0 .5.5s.3.5.4.5h.2c-.1-.2-.2-.3-.3-.5l-.3-.5.2-.2c.3-.3.3-.7 0-1-.1-.2-.2-.2-.8-.2h-.6l.1 1.1zm1.2-.5c0 .3-.2.5-.5.5s-.2 0-.2-.4v-.4h.4c.3.1.3.1.3.3zm-76.1 0v1.5h5.2v14.2h3.6V18.1h5.1c.1-.5.1-1 .1-1.5V15h-14v1.6zm18-1.5v17.2H104v-3.1h-8v-4h6.8V22H96v-3.9h7.9V15h-5.8c-1.7-.1-3.7 0-5.6.1zm21 .1c-.1.3-2.1 5.6-4.2 11.3l-1.5 4.1c-.3.9-.6 1.7-.6 1.7.6.1 1.2.1 1.9.1h1.9l.5-1.4c.3-.8.5-1.5.6-1.7l.1-.3h6.6l.6 1.7.6 1.7h3.9s-.8-2-1.7-4.5-2.4-6.2-3.2-8.4-1.6-4.1-1.6-4.2l-.1-.2h-3.6l-.2.1zm2.2 4.8c.1.4.6 1.8 1.1 3.3l.9 2.7s-.5.1-2.3.1h-2.3s2.3-6.8 2.3-6.7.1.2.3.6zm11.8 3.7v8.7h3.4V22l1 2.2c.6 1.2 1.6 3.5 2.3 4.9l1.2 2.7h2.1l1.2-2.6c.6-1.4 1.7-3.6 2.3-5l1.2-2.5v10.6h3.4V15h-3.4l-2.8 6.2c-1.5 3.4-2.8 6.2-2.8 6.2s-2-4.2-4.4-9.6l-1.3-2.8h-3.4v8.7zM15.2 27.6c-.5.1-.6.2-.5.3s.7.3 1.4.6c.8.3 1.6.7 2.4 1.2.8.7 1.3 1.7 1.3 2.8 0 1.4-.8 2.6-2 3.3-.5.3-1.1.4-1.6.4-.7 0-1-.1-2.8-.8-.8-.3-1.5-.6-1.5-.6.3.5.6 1 1 1.4 1.1 1.1 2.6 1.6 4.1 1.4 2.8-.2 4.8-2.6 4.6-5.4-.2-2.3-1.8-4.1-4.1-4.5-.8-.2-1.6-.2-2.3-.1z"/></svg>