<svg version="1.1" id="Layer_1" xmlns="http://www.w3.org/2000/svg" x="0" y="0" viewBox="0 0 2500 683" xml:space="preserve"><style>.st0{fill:#ccc}</style><path class="st0" d="M.7 2.2l2402.1 1.9V683H.6C.6 457.9.7 2.2.7 2.2zm69.2 73v538.4h2263.7V75.2H69.9"/><path class="st0" d="M754.6 144.4h107.7l113.4 400.1H895l-27-100H748.8s-20.7 80.4-25.1 98.1c-24 1.9-82.6 0-82.6 0l113.5-398.2zm51.9 67.4L764.2 381h88.5l-46.2-169.2m1186.6-67.4h165.5v52h-107.8V254h98.2v52h-98.2v59.5h107.8v52h-167.3l1.8-273.1m-480.8 0h80.8l76.8 298.2 75-298.2h80.8l-121.2 400.1h-71.2l-121-400.1m-340.3 0h77v332.7h167.2v67.4H1170c0-132.4-3.3-271.2 2-400.1m-961.8 0h79l76.9 302 74.9-302h82.8L402.6 544.5h-73.1L210.2 144.4M2460.2 0c21.7 0 39.1 17.8 39.1 39.9 0 22.5-17.4 40.1-39.4 40.1-21.7 0-39.5-17.6-39.5-40.1 0-22.2 17.8-39.9 39.5-39.9h.5-.2zm-.4 6.3c-17.5 0-31.9 15-31.9 33.6 0 19.1 14.4 33.7 32.2 33.7 17.7.3 31.8-14.7 31.8-33.5 0-18.9-14.2-33.9-31.8-33.9h-.5c0 .1.2.1.2.1zm-7.5 56.8h-7V18.6c3.7-.5 7.1-1 12.5-1 6.6 0 11.1 1.5 13.8 3.3 2.7 2 4 5 4 9.2 0 5.9-3.8 9.4-8.6 10.9v.3c3.9.7 6.6 4.3 7.5 10.7 1 6.9 2 9.6 2.8 11h-7.4c-.9-1.4-2-5.5-2.8-11.2-.9-5.7-3.9-7.9-9.5-7.9h-5V63l-.3.1zm0-24.6h5.2c5.8 0 10.8-2.2 10.8-7.6 0-3.9-2.8-7.8-10.8-7.8-2.3 0-3.9.1-5.2.4v15"/></svg>