<?xml version="1.0" encoding="utf-8"?>
<!-- Generator: Adobe Illustrator 22.1.0, SVG Export Plug-In . SVG Version: 6.00 Build 0)  -->
<svg version="1.1" id="Layer_1" xmlns="http://www.w3.org/2000/svg" xmlns:xlink="http://www.w3.org/1999/xlink" x="0px" y="0px"
	 viewBox="0 0 152.6 47.3" style="enable-background:new 0 0 152.6 47.3;" xml:space="preserve">
<style type="text/css">
	.st0{fill:#CCCCCC;}
</style>
<title>steam-logo</title>
<path class="st0" d="M21.7,0c-4.4,0.3-8.7,1.9-12.2,4.5c-2,1.5-3.8,3.3-5.3,5.4c-1.3,1.9-2.3,3.9-3,6.1c-0.6,1.7-0.9,3.4-1.1,5.2
	v0.5l1.8,0.8l6.3,2.6l4.4,1.9l0.4-0.3c1-0.6,2.1-0.9,3.2-0.9h0.5l0.3-0.4l1.3-1.9l1.9-2.8c0.5-0.8,1.2-1.8,1.5-2.2l0.6-0.8V17
	c0.2-4.1,3.3-7.5,7.4-8.2c1-0.2,2.1-0.2,3.1,0c2.5,0.5,4.7,2.1,6,4.4c0.4,0.8,0.7,1.6,0.9,2.4c0.2,1.1,0.2,2.2,0.1,3.4
	c-0.6,3.7-3.5,6.6-7.2,7.3c-0.4,0.1-0.9,0.1-1.2,0.1c-0.5,0-0.5,0-1.2,0.5L28,28.4l-3.8,2.8l-1.3,0.9l0,0.7
	c-0.2,3.2-2.6,5.9-5.8,6.3c-1.6,0.2-3.2-0.2-4.5-1.1c-0.9-0.6-1.6-1.4-2.1-2.3c-0.3-0.5-0.5-1.1-0.6-1.7c0-0.1-0.8-0.5-4.5-2
	c-2.5-1-4.5-1.9-4.5-1.9c0.3,1.1,0.7,2.2,1.2,3.2c1.2,2.6,2.8,5,4.8,7c1.4,1.4,2.9,2.7,4.6,3.7c7.8,4.7,17.7,4.3,25.2-0.9
	c2.2-1.6,4.1-3.5,5.7-5.6c3.6-5.1,5.1-11.5,4.1-17.7c-1.1-7-5.3-13.1-11.4-16.7C31,0.8,26.4-0.3,21.7,0z"/>
<path class="st0" d="M29.9,11.8c-2.3,0.5-4.1,2.3-4.5,4.6c-0.2,0.9-0.2,1.8,0,2.7c0.4,1.7,1.6,3.1,3.1,3.9c0.9,0.5,1.8,0.7,2.8,0.6
	c0.6,0,1.1-0.1,1.6-0.3c1.9-0.7,3.4-2.2,3.9-4.2c0.2-0.9,0.2-1.9,0-2.9c-0.2-0.8-0.6-1.6-1.1-2.3c-0.8-1-1.9-1.6-3.1-2
	C31.7,11.6,30.7,11.6,29.9,11.8z M32.4,13.3c1.2,0.3,2.2,1.2,2.7,2.3c0.3,0.6,0.5,1.3,0.4,2c0,0.7-0.1,1.4-0.5,2
	c-0.5,1-1.3,1.7-2.3,2.1c-0.4,0.2-0.9,0.3-1.3,0.3c-0.8,0.1-1.5-0.1-2.2-0.5c-1.1-0.5-1.9-1.5-2.3-2.6c-0.2-0.4-0.2-0.9-0.2-1.4
	c0-0.5,0-1,0.2-1.4c0.4-1.2,1.4-2.2,2.6-2.7c0.5-0.2,1.1-0.3,1.6-0.3C31.5,13.1,32,13.2,32.4,13.3L32.4,13.3z"/>
<path class="st0" d="M64.3,14.8c-1.8,0.1-3.4,1.2-4.3,2.7c-0.4,0.8-0.6,1.6-0.5,2.5c0,0.8,0.2,1.6,0.7,2.3c0.8,1.1,1.8,1.8,4.6,2.7
	c1.9,0.6,2.6,1,3,1.4c0.3,0.3,0.4,0.7,0.3,1.1c-0.2,1.1-1.2,1.7-3.1,1.7c-1.5,0-2.9-0.4-4.2-1c-0.2-0.1-0.3-0.2-0.5-0.2
	c0,0-0.3,0.6-0.5,1.4l-0.6,1.5c0,0.1,0.1,0.2,0.7,0.5c1.9,0.9,4.1,1.3,6.2,1.2c1.7,0,3.3-0.7,4.5-2c0.8-0.9,1.3-2,1.3-3.2
	c0.1-1-0.1-2-0.8-2.8c-0.7-0.9-1.8-1.6-4.6-2.6c-1-0.3-1.9-0.7-2.7-1.2c-0.7-0.5-0.8-1.5-0.2-2.2c0.1-0.1,0.2-0.2,0.4-0.3
	c0.5-0.3,1-0.5,1.6-0.4c1.3,0,2.6,0.3,3.8,1c0.2,0.1,0.4,0.2,0.6,0.3c0.1-0.1,1.5-2.6,1.5-2.6c-0.6-0.5-1.3-0.9-2.1-1.1
	C67.7,14.8,66,14.6,64.3,14.8z"/>
<path class="st0" d="M149.5,14.9c-0.7,0.2-1.2,0.8-1.5,1.4c-0.2,0.6-0.2,1.2,0,1.8c0.2,0.6,0.7,1,1.2,1.3c0.7,0.3,1.4,0.3,2.1,0
	c0.5-0.3,0.9-0.6,1.1-1.1c0.3-0.7,0.2-1.5-0.1-2.2c-0.3-0.4-0.6-0.8-1.1-1C150.7,14.8,150.1,14.8,149.5,14.9z M151.1,15.4
	c0.7,0.3,1.1,1,1.1,1.8c0.1,1-0.7,1.9-1.7,2c-0.1,0-0.2,0-0.3,0c-0.6,0-1.1-0.2-1.5-0.6c-0.4-0.4-0.5-0.9-0.5-1.4
	c-0.1-0.5,0.1-1,0.5-1.4C149.4,15.2,150.3,15,151.1,15.4L151.1,15.4z"/>
<path class="st0" d="M149.4,17.1v1.2h0.2c0.2,0,0.2,0,0.2-0.5v-0.4h0.2c0.2,0,0.3,0,0.5,0.5s0.3,0.5,0.4,0.5s0.2,0,0.2,0
	c-0.1-0.2-0.2-0.3-0.3-0.5l-0.3-0.5l0.2-0.2c0.3-0.3,0.3-0.7,0-1c-0.1-0.2-0.2-0.2-0.8-0.2h-0.6L149.4,17.1z M150.6,16.6
	c0,0.3-0.2,0.5-0.5,0.5s-0.2,0-0.2-0.4v-0.4h0.4C150.6,16.4,150.6,16.4,150.6,16.6z"/>
<path class="st0" d="M74.5,16.6v1.5h2.6h2.6v7.1v7.1h3.6v-7.1v-7.1h2.5c1.4,0,2.6,0,2.6,0c0.1-0.5,0.1-1,0.1-1.5V15h-7h-7L74.5,16.6
	z"/>
<path class="st0" d="M92.5,15.1c0,0,0,3.9,0,8.6v8.6H104v-3.1h-4h-4v-4h6.8V22h-6.8v-3.9h4h3.9v-1.5V15h-5.8
	C96.4,14.9,94.4,15,92.5,15.1z"/>
<path class="st0" d="M113.5,15.2c-0.1,0.3-2.1,5.6-4.2,11.3l-1.5,4.1c-0.3,0.9-0.6,1.7-0.6,1.7c0.6,0.1,1.2,0.1,1.9,0.1h1.9l0.5-1.4
	c0.3-0.8,0.5-1.5,0.6-1.7l0.1-0.3h3.3h3.3l0.6,1.7l0.6,1.7h2c1.1,0,1.9,0,1.9,0s-0.8-2-1.7-4.5s-2.4-6.2-3.2-8.4s-1.6-4.1-1.6-4.2
	l-0.1-0.2h-3.6L113.5,15.2z M115.7,20c0.1,0.4,0.6,1.8,1.1,3.3s0.9,2.7,0.9,2.7s-0.5,0.1-2.3,0.1c-1.3,0-2.3,0-2.3,0
	s2.3-6.8,2.3-6.7S115.5,19.6,115.7,20z"/>
<path class="st0" d="M127.5,23.7v8.7h1.7h1.7v-5.2V22l1,2.2c0.6,1.2,1.6,3.5,2.3,4.9l1.2,2.7h2.1l1.2-2.6c0.6-1.4,1.7-3.6,2.3-5
	l1.2-2.5v5.3v5.3h3.4V15h-3.4l-2.8,6.2c-1.5,3.4-2.8,6.2-2.8,6.2s-2-4.2-4.4-9.6l-1.3-2.8h-3.4V23.7z"/>
<path class="st0" d="M15.2,27.6c-0.5,0.1-0.6,0.2-0.5,0.3s0.7,0.3,1.4,0.6c0.8,0.3,1.6,0.7,2.4,1.2c0.8,0.7,1.3,1.7,1.3,2.8
	c0,1.4-0.8,2.6-2,3.3c-0.5,0.3-1.1,0.4-1.6,0.4c-0.7,0-1-0.1-2.8-0.8c-0.8-0.3-1.5-0.6-1.5-0.6c0.3,0.5,0.6,1,1,1.4
	c1.1,1.1,2.6,1.6,4.1,1.4c2.8-0.2,4.8-2.6,4.6-5.4c-0.2-2.3-1.8-4.1-4.1-4.5C16.7,27.5,15.9,27.5,15.2,27.6z"/>
</svg>
