<?xml version="1.0" encoding="utf-8"?>
<!-- Generator: Adobe Illustrator 22.1.0, SVG Export Plug-In . SVG Version: 6.00 Build 0)  -->
<svg version="1.1" id="Layer_1" xmlns="http://www.w3.org/2000/svg" xmlns:xlink="http://www.w3.org/1999/xlink" x="0px" y="0px"
	 viewBox="0 0 2471 2500" style="enable-background:new 0 0 2471 2500;" xml:space="preserve">
<style type="text/css">
	.st0{fill:#243042;}
</style>
<path class="st0" d="M1233.4,0C583.2,0,50.6,505.9,0,1148.8l663.3,276.8c57.9-40.1,126.7-61.5,197.2-61.4c6.6,0,13.1,0.2,19.5,0.5
	l295-431.6v-6c0-259.7,209.4-471,466.7-471c257.4,0,466.7,211.3,466.7,471c0,259.7-209.4,471.1-466.7,471.1c-3.6,0-7-0.1-10.6-0.2
	l-420.8,302.9c0.3,5.6,0.4,11.2,0.4,16.7c0,195-157.2,353.6-350.3,353.6c-169.6,0-311.4-122.2-343.5-283.9l-474.5-198
	c146.9,524.2,624.2,908.6,1190.8,908.6c683.6,0,1237.6-559.2,1237.6-1248.9C2471,559.2,1916.9,0,1233.4,0z M775.6,1895.1l-152-63.4
	c26.9,56.6,73.6,104,135.5,130c133.8,56.3,288-7.8,343.7-142.8c27-65,27.2-138,0.4-203c-26.7-65.5-77.2-116.7-141.9-143.9
	c-64.4-27-133.3-26-193.9-2.9l157.1,65.5c98.7,41.5,145.3,155.8,104.2,255.4C987.6,1889.5,874.3,1936.6,775.6,1895.1L775.6,1895.1z
	 M1952.8,927.1c0-173-139.5-313.9-311-313.9c-171.5,0-311.1,140.9-311.1,313.9c0,173,139.5,313.8,311.1,313.8
	C1813.2,1240.9,1952.8,1100.1,1952.8,927.1z M1408.7,926.5c0-130.2,104.6-235.7,233.6-235.7c129,0,233.7,105.5,233.7,235.7
	s-104.6,235.7-233.7,235.7C1513.3,1162.2,1408.6,1056.7,1408.7,926.5L1408.7,926.5z"/>
</svg>
