<?xml version="1.0" encoding="utf-8"?>
<!-- Generator: Adobe Illustrator 22.1.0, SVG Export Plug-In . SVG Version: 6.00 Build 0)  -->
<svg version="1.1" id="Layer_1" xmlns="http://www.w3.org/2000/svg" xmlns:xlink="http://www.w3.org/1999/xlink" x="0px" y="0px"
	 viewBox="0 0 2500 683" style="enable-background:new 0 0 2500 683;" xml:space="preserve">
<style type="text/css">
	.st0{fill:#CCCCCC;}
</style>
<path class="st0" d="M0.7,2.2l2402.1,1.9V683H0.6C0.6,457.9,0.7,2.2,0.7,2.2z M69.9,75.2v538.4h2263.7V75.2H69.9"/>
<path class="st0" d="M754.6,144.4h107.7l113.4,400.1H895l-27-100H748.8c0,0-20.7,80.4-25.1,98.1c-24,1.9-82.6,0-82.6,0L754.6,144.4
	L754.6,144.4z M806.5,211.8l-42.3,169.2h88.5L806.5,211.8 M1993.1,144.4h165.5v52h-107.8V254h98.2v52h-98.2v59.5h107.8v52h-167.3
	L1993.1,144.4 M1512.3,144.4h80.8l76.8,298.2l75-298.2h80.8l-121.2,400.1h-71.2L1512.3,144.4 M1172,144.4h77v332.7h167.2v67.4H1170
	C1170,412.1,1166.7,273.3,1172,144.4 M210.2,144.4h79l76.9,302l74.9-302h82.8L402.6,544.5h-73.1L210.2,144.4 M2460.2,0
	c21.7,0,39.1,17.8,39.1,39.9c0,22.5-17.4,40.1-39.4,40.1c-21.7,0-39.5-17.6-39.5-40.1c0-22.2,17.8-39.9,39.5-39.9h0.5H2460.2z
	 M2459.8,6.3c-17.5,0-31.9,15-31.9,33.6c0,19.1,14.4,33.7,32.2,33.7c17.7,0.3,31.8-14.7,31.8-33.5c0-18.9-14.2-33.9-31.8-33.9h-0.5
	C2459.6,6.3,2459.8,6.3,2459.8,6.3z M2452.3,63.1h-7V18.6c3.7-0.5,7.1-1,12.5-1c6.6,0,11.1,1.5,13.8,3.3c2.7,2,4,5,4,9.2
	c0,5.9-3.8,9.4-8.6,10.9v0.3c3.9,0.7,6.6,4.3,7.5,10.7c1,6.9,2,9.6,2.8,11h-7.4c-0.9-1.4-2-5.5-2.8-11.2c-0.9-5.7-3.9-7.9-9.5-7.9
	h-5v19.1L2452.3,63.1L2452.3,63.1z M2452.3,38.5h5.2c5.8,0,10.8-2.2,10.8-7.6c0-3.9-2.8-7.8-10.8-7.8c-2.3,0-3.9,0.1-5.2,0.4V38.5"
	/>
</svg>
